<svg width="100" height="454" viewBox="0 0 100 454" fill="none" xmlns="http://www.w3.org/2000/svg">
<path d="M27.6317 383V383.267C27.282 383.329 27.0173 383.44 26.8376 383.598C26.5802 383.834 26.2768 384.194 26.0776 384.68L22.0266 393H21.757L17.6902 384.572C17.5008 384.139 17.2432 383.875 17.1655 383.779C17.0442 383.63 16.8949 383.513 16.7176 383.429C16.5403 383.345 16.3011 383.291 16 383.267V383H19.9572V383.267C19.5007 383.31 19.2831 383.387 19.147 383.497C19.011 383.608 18.9431 383.75 18.9431 383.923C18.9431 384.163 19.0548 384.538 19.2781 385.048L22.2816 390.779L25.218 385.12C25.4463 384.562 25.6356 384.175 25.6356 383.959C25.6356 383.82 25.5652 383.686 25.4243 383.559C25.2835 383.431 25.1241 383.341 24.7891 383.288C24.7648 383.284 24.7236 383.276 24.6652 383.267V383H27.6317V383Z" fill="black"/>
<path d="M32 383V383.267C31.6502 383.329 31.3856 383.44 31.2059 383.598C30.9485 383.834 30.6451 384.194 30.4459 384.68L26.3949 393H26.1253L22.0585 384.572C21.8691 384.139 21.6115 383.875 21.5338 383.779C21.4125 383.63 21.2631 383.513 21.0859 383.429C20.9085 383.345 20.6693 383.291 20.3683 383.267V383H24.3255V383.267C23.869 383.31 23.6514 383.387 23.5153 383.497C23.3793 383.608 23.3114 383.75 23.3114 383.923C23.3114 384.163 23.4231 384.538 23.6464 385.048L26.6499 390.779L29.5863 385.12C29.8146 384.562 30.0039 384.175 30.0039 383.959C30.0039 383.82 29.9335 383.686 29.7926 383.559C29.6518 383.431 29.4924 383.341 29.1574 383.288C29.1331 383.284 29.0919 383.276 29.0335 383.267V383H32V383Z" fill="black"/>
<path d="M17.7982 428.902C18.7372 428.902 19.4983 428.141 19.4983 427.202C19.4983 426.263 18.7372 425.502 17.7982 425.502C16.8593 425.502 16.0981 426.263 16.0981 427.202C16.0981 428.141 16.8593 428.902 17.7982 428.902Z" fill="#FA9826"/>
<path d="M16 420.967V423.235C19.3171 423.235 21.7655 425.683 21.7655 429H24.0326C24.0326 424.512 20.4878 420.967 16 420.967Z" fill="#EF8114"/>
<path d="M16.1951 417V419.267C21.4634 419.267 25.7333 423.537 25.7333 429H28C28 422.366 22.6342 417 16.1951 417Z" fill="#EF8114"/>
<path d="M17.7982 428.902C18.7372 428.902 19.4983 428.141 19.4983 427.202C19.4983 426.263 18.7372 425.502 17.7982 425.502C16.8593 425.502 16.0981 426.263 16.0981 427.202C16.0981 428.141 16.8593 428.902 17.7982 428.902Z" fill="#FA9826"/>
<path d="M16 420.967V423.235C18.9268 423.235 21.4098 425.43 21.7237 428.26C22.5009 428.035 23.2164 427.736 23.8761 427.39C23.1748 423.726 19.9024 420.967 16 420.967Z" fill="#FA9826"/>
<path d="M27.1261 424.484C25.3567 420.088 21.0732 417 16.1951 417V419.267C20.4878 419.267 24.2888 422.25 25.3873 426.363C26.1171 425.772 26.729 425.223 27.1261 424.484Z" fill="#FA9826"/>
<path d="M17.7982 425.502C16.8593 425.502 16.0978 426.263 16.0978 427.202C16.0978 427.747 16.3557 428.232 16.7545 428.543C17.6751 428.211 18.6014 427.737 19.4948 427.128C19.4554 426.223 18.7118 425.502 17.7982 425.502Z" fill="#FA9826"/>
<path d="M16 420.967V423.235C18.1463 423.235 19.9438 424.337 20.9368 425.982C21.13 425.809 21.3126 425.631 21.4995 425.444C21.8697 425.074 22.2021 424.661 22.5186 424.268C21.0775 422.254 18.7317 420.967 16 420.967Z" fill="#FA9826"/>
<path d="M16.1951 417V419.267C19.122 419.267 21.8597 420.662 23.6281 422.839C24.0716 422.111 24.4343 421.443 24.6968 420.703C22.5317 418.469 19.5122 417 16.1951 417Z" fill="#FA9826"/>
<path d="M18.5978 425.702C18.359 425.574 18.0872 425.502 17.798 425.502C16.8591 425.502 16.0976 426.263 16.0976 427.202C16.0976 427.529 16.1912 427.832 16.3506 428.092C17.2105 427.529 17.975 426.712 18.5978 425.702Z" fill="#F9BD28"/>
<path d="M19.984 421.999C18.8244 421.335 17.561 420.967 16 420.967V423.235C17.3383 423.247 18.3415 423.646 19.2741 424.246C19.5655 423.551 19.817 422.795 19.984 421.999Z" fill="#F9BD28"/>
<path d="M16.1951 419.267C17.561 419.267 19.0611 419.624 20.3268 420.236C20.3543 419.877 20.3473 419.5 20.3473 419.129C20.3473 418.661 20.3602 418.202 20.3167 417.751C19.0217 417.267 17.561 417 16.1951 417V419.267Z" fill="#F9BD28"/>
<path d="M31.6649 233.875C31.4819 233.138 30.9419 232.56 30.2499 232.36C29.0029 232.002 23.9989 232.002 23.9989 232.002C23.9989 232.002 18.9959 232.002 17.7479 232.36C17.0559 232.56 16.5169 233.138 16.3329 233.875C16.0009 235.211 16.0009 238.001 16.0009 238.001C16.0009 238.001 16.0009 240.791 16.3359 242.127C16.5189 242.864 17.0589 243.442 17.7509 243.642C18.9979 244 24.0019 244 24.0019 244C24.0019 244 29.0049 244 30.2529 243.642C30.9449 243.442 31.4839 242.864 31.6679 242.127C32.0009 240.79 32.0009 238.001 32.0009 238.001C32.0009 238.001 32.0009 235.211 31.6659 233.875H31.6649Z" fill="#FF0000"/>
<path d="M22.3639 240.534L26.5459 238.001L22.3639 235.468V240.534Z" fill="white"/>
<path d="M28.7909 266.001C27.0159 266.001 25.5789 267.439 25.5789 269.211C25.5789 269.382 25.5926 269.553 25.6199 269.722L25.6699 269.971L25.7279 270.212L21.8519 272.151L21.6939 271.959C21.0829 271.218 20.1789 270.79 19.2139 270.79C18.0669 270.79 17.0069 271.401 16.4332 272.395C15.8596 273.388 15.8594 274.612 16.4327 275.605C17.0061 276.598 18.0659 277.211 19.2129 277.211C20.1016 277.213 20.951 276.845 21.5579 276.196L21.6929 276.042L21.8509 275.85L25.7279 277.789L25.6699 278.03C25.6099 278.277 25.5799 278.532 25.5799 278.789C25.5797 279.936 26.1916 280.996 27.1852 281.57C28.1787 282.144 29.4029 282.144 30.3967 281.571C31.3904 280.997 32.0027 279.937 32.0029 278.79C32.0029 277.015 30.5649 275.578 28.7929 275.578C27.8959 275.578 27.0529 275.948 26.4479 276.594L26.3129 276.748L26.1549 276.939L22.2779 275.001L22.3359 274.76C22.3959 274.513 22.4259 274.258 22.4259 274.001C22.4259 273.83 22.4119 273.658 22.3849 273.492L22.3349 273.243L22.2769 273.001L26.1539 271.063L26.3119 271.254C26.9229 271.995 27.8259 272.424 28.7909 272.424C30.5645 272.424 32.0024 270.986 32.0024 269.212C32.0024 267.439 30.5645 266.001 28.7909 266.001ZM28.7909 276.529C29.3906 276.528 29.9658 276.767 30.3899 277.191C30.814 277.615 31.0521 278.19 31.0519 278.79C31.0519 280.039 30.0389 281.052 28.7899 281.052C28.1899 281.052 27.6145 280.814 27.1904 280.389C26.7663 279.965 26.5283 279.39 26.5289 278.79C26.5289 278.524 26.5749 278.262 26.6729 278L26.7619 277.792L26.7969 277.719C27.1907 276.985 27.9561 276.527 28.7889 276.528H28.7899L28.7909 276.529ZM19.2119 271.739C19.9954 271.739 20.7227 272.146 21.1339 272.813L21.2609 273.039C21.4009 273.334 21.4739 273.664 21.4739 274C21.4739 274.27 21.4269 274.535 21.3289 274.797L21.2139 275.057C20.8219 275.797 20.0549 276.262 19.2139 276.262C17.9649 276.262 16.9519 275.249 16.9519 274C16.9519 272.751 17.9649 271.738 19.2139 271.738H19.2129L19.2119 271.739ZM28.7909 266.95C30.0389 266.95 31.0519 267.963 31.0519 269.212C31.0515 270.221 30.3824 271.107 29.4122 271.384C28.442 271.661 27.4058 271.261 26.8729 270.405L26.7379 270.164C26.5995 269.865 26.5281 269.54 26.5288 269.212C26.5283 268.612 26.7663 268.036 27.1904 267.612C27.6145 267.188 28.1899 266.949 28.7899 266.95H28.7909Z" fill="#E21B22"/>
<path d="M68.7909 266.001C67.0159 266.001 65.5789 267.439 65.5789 269.211C65.5789 269.382 65.5926 269.553 65.6199 269.722L65.6699 269.971L65.7279 270.212L61.8519 272.151L61.6939 271.959C61.0829 271.218 60.1789 270.79 59.2139 270.79C58.0669 270.79 57.0069 271.401 56.4332 272.395C55.8596 273.388 55.8594 274.612 56.4327 275.605C57.0061 276.598 58.0659 277.211 59.2129 277.211C60.1016 277.213 60.951 276.845 61.5579 276.196L61.6929 276.042L61.8509 275.85L65.7279 277.789L65.6699 278.03C65.6099 278.277 65.5799 278.532 65.5799 278.789C65.5797 279.936 66.1916 280.996 67.1852 281.57C68.1787 282.144 69.4029 282.144 70.3967 281.571C71.3904 280.997 72.0027 279.937 72.0029 278.79C72.0029 277.015 70.5649 275.578 68.7929 275.578C67.8959 275.578 67.0529 275.948 66.4479 276.594L66.3129 276.748L66.1549 276.939L62.2779 275.001L62.3359 274.76C62.3959 274.513 62.4259 274.258 62.4259 274.001C62.4259 273.83 62.4119 273.658 62.3849 273.492L62.3349 273.243L62.2769 273.001L66.1539 271.063L66.3119 271.254C66.9229 271.995 67.8259 272.424 68.7909 272.424C70.5645 272.424 72.0024 270.986 72.0024 269.212C72.0024 267.439 70.5645 266.001 68.7909 266.001ZM68.7909 276.529C69.3906 276.528 69.9658 276.767 70.3899 277.191C70.814 277.615 71.0521 278.19 71.0519 278.79C71.0519 280.039 70.0389 281.052 68.7899 281.052C68.1899 281.052 67.6145 280.814 67.1904 280.389C66.7663 279.965 66.5283 279.39 66.5289 278.79C66.5289 278.524 66.5749 278.262 66.6729 278L66.7619 277.792L66.7969 277.719C67.1907 276.985 67.9561 276.527 68.7889 276.528H68.7899L68.7909 276.529ZM59.2119 271.739C59.9954 271.739 60.7227 272.146 61.1339 272.813L61.2609 273.039C61.4009 273.334 61.4739 273.664 61.4739 274C61.4739 274.27 61.4269 274.535 61.3289 274.797L61.2139 275.057C60.8219 275.797 60.0549 276.262 59.2139 276.262C57.9649 276.262 56.9519 275.249 56.9519 274C56.9519 272.751 57.9649 271.738 59.2139 271.738H59.2129L59.2119 271.739ZM68.7909 266.95C70.0389 266.95 71.0519 267.963 71.0519 269.212C71.0515 270.221 70.3824 271.107 69.4122 271.384C68.4421 271.661 67.4058 271.261 66.8729 270.405L66.7379 270.164C66.5995 269.865 66.5281 269.54 66.5288 269.212C66.5283 268.612 66.7663 268.036 67.1904 267.612C67.6145 267.188 68.1899 266.949 68.7899 266.95H68.7909Z" fill="#1A1A1A"/>
<path d="M16.8489 168.92C16.3249 168.016 16.0499 166.991 16.0509 165.947C16.0519 162.668 18.7329 160.001 22.0259 160.001C23.6095 160 25.129 160.627 26.2519 161.744C27.3729 162.86 28.0019 164.373 28.0009 165.951C27.9999 169.23 25.3189 171.897 22.0259 171.897H22.0239C21.0268 171.897 20.0454 171.648 19.1689 171.173L16.0009 172.001L16.8489 168.92Z" fill="#25D366"/>
<path d="M23.0009 168.72C22.7119 168.631 22.4279 168.526 22.1499 168.407C20.6519 167.763 19.6739 166.263 19.5999 166.164C19.5259 166.065 18.9899 165.358 18.9899 164.627C18.9899 163.896 19.3759 163.536 19.5129 163.387C19.6139 163.272 19.7581 163.205 19.9109 163.201L20.1969 163.206H20.2309C20.3179 163.206 20.4259 163.205 20.5329 163.461L20.9929 164.564C21.0299 164.638 21.0549 164.725 21.0049 164.824C20.9549 164.923 20.9299 164.985 20.8559 165.072L20.6319 165.332C20.5569 165.406 20.4789 165.487 20.5669 165.635C20.6549 165.783 20.9539 166.27 21.3979 166.664C21.9679 167.17 22.4489 167.327 22.5989 167.401C22.7489 167.475 22.8349 167.463 22.9219 167.364L23.3949 166.781C23.4939 166.632 23.5939 166.657 23.7309 166.707C23.8679 166.757 24.6019 167.116 24.7509 167.19C24.8999 167.264 24.9999 167.302 25.0369 167.364C25.0739 167.426 25.0739 167.723 24.9499 168.071C24.8259 168.419 24.2289 168.735 23.9419 168.777C23.8219 168.795 23.7009 168.805 23.5799 168.806C23.3839 168.807 23.1889 168.777 23.0019 168.718L23.0009 168.72Z" fill="white"/>
<path d="M23.0009 199.372V206.455H18.0709L16.0009 201.587L18.5019 203.12C19.4939 203.738 20.8739 203.403 21.3769 202.412L23.0009 199.372ZM23.0009 208.001H18.0709V207.099H23.0009V208.001ZM23.0009 196.001V197.843L22.1669 198.191L22.2529 197.405L21.6919 196.838L22.5109 196.671L23.0009 196.001Z" fill="#FCC600"/>
<path d="M23.0009 206.456V199.373L24.6249 202.412C25.1139 203.404 26.5079 203.739 27.4999 203.12L30.0009 201.587L27.9309 206.455H23.0009V206.456ZM23.0009 207.1H27.9309V208.001H23.0009V207.099V207.1ZM23.0009 197.843V196.001L23.4899 196.671L24.3089 196.838L23.7479 197.405L23.8339 198.191L22.9999 197.843H23.0009Z" fill="#FCAC16"/>
<path d="M25.5709 130.729C25.6092 130.693 25.6685 130.693 25.7069 130.729L31.1699 135.828C31.1998 135.856 31.2096 135.899 31.1946 135.937C31.1796 135.975 31.1428 136.001 31.1019 136.001H16.9619C16.9209 136.001 16.8841 135.975 16.8691 135.937C16.8541 135.899 16.8639 135.856 16.8939 135.828L22.3569 130.729C22.3952 130.693 22.4545 130.693 22.4929 130.729L23.9639 132.102C24.0022 132.137 24.0615 132.137 24.0999 132.102L25.5709 130.729ZM16.0279 124.89C16.0655 124.85 16.1285 124.847 16.1689 124.885L21.5719 129.928C21.6149 129.973 21.6119 130.037 21.5719 130.074L16.1689 135.117C16.1397 135.144 16.0974 135.151 16.061 135.135C16.0246 135.119 16.001 135.083 16.0009 135.044V124.958C16.0009 124.932 16.0106 124.908 16.0279 124.89ZM31.9009 124.858C31.9561 124.858 32.0009 124.902 32.0009 124.958V135.044C32.0007 135.083 31.9771 135.119 31.9407 135.135C31.9043 135.151 31.862 135.144 31.8329 135.117L26.4299 130.074C26.3869 130.029 26.3899 129.965 26.4299 129.928L31.8329 124.885C31.8513 124.867 31.8756 124.858 31.9009 124.858ZM31.1019 124.001C31.1428 124.001 31.1796 124.026 31.1946 124.064C31.2096 124.102 31.1998 124.146 31.1699 124.174L24.0999 130.773C24.0615 130.808 24.0022 130.808 23.9639 130.773L16.8939 124.174C16.8639 124.146 16.8541 124.102 16.8691 124.064C16.8841 124.026 16.9209 124.001 16.9619 124.001H31.1019Z" fill="#EF6C00"/>
<path d="M25.0389 91.7157C26.7309 91.7157 28.0009 92.8707 28.0009 95.3547V100.001H25.4279V95.6747C25.4279 94.5867 25.0549 93.8457 24.1249 93.8457C23.5299 93.8487 23.0019 94.2427 22.8049 94.8287C22.7388 95.0405 22.7097 95.2621 22.7189 95.4837V100.001H20.1529V91.9057H22.7259V93.0507C23.2009 92.1887 24.0939 91.6747 25.0449 91.7147L25.0459 91.7157H25.0389ZM18.7259 91.9047V99.9997H16.1539V91.9047H18.7189H18.7259ZM17.3399 88.0007L17.4529 88.0057L17.5649 88.0027C17.9869 88.0087 18.3819 88.2217 18.6309 88.5777L18.7029 88.6787C18.9639 89.1297 18.9599 89.6967 18.6929 90.1437C18.4259 90.5907 17.9419 90.8447 17.4399 90.8007H17.4289C16.9259 90.8347 16.4469 90.5717 16.1889 90.1187C15.9309 89.6657 15.9379 89.1007 16.2059 88.6547C16.4739 88.2087 16.9609 87.9587 17.4629 88.0067L17.3399 88.0007Z" fill="#2867B2"/>
<path d="M31.5549 52.2217C30.9033 52.5766 30.199 52.8248 29.4689 52.9567C28.4529 51.9567 26.8349 51.7117 25.5249 52.3587C24.2149 53.0057 23.5389 54.3837 23.8769 55.7187C21.2469 55.6007 18.7909 54.4517 17.1099 52.5527C16.2409 53.9377 16.6859 55.7067 18.1259 56.5977C17.6084 56.5825 17.1008 56.4523 16.6399 56.2167V56.2537C16.6409 57.6967 17.7419 58.9387 19.2799 59.2257C18.7948 59.3479 18.2892 59.3653 17.7969 59.2767C18.2269 60.5107 19.4589 61.3567 20.8629 61.3827C19.6999 62.2247 18.2649 62.6817 16.7859 62.6797C16.5239 62.6787 16.2619 62.6647 16.0019 62.6377C18.8849 64.3377 22.5189 64.4527 25.5179 62.9387C28.5099 61.4257 30.3739 58.5267 30.3719 55.3757L30.3619 54.9827C30.9976 54.5635 31.5528 54.0334 32.0009 53.4177C31.4009 53.6627 30.7669 53.8237 30.1159 53.8957C30.7989 53.5197 31.3119 52.9247 31.5619 52.2207L31.5639 52.2217H31.5559H31.5549Z" fill="#1DA1F2"/>
<path d="M24.25 306.001H19.75C17.6789 306.001 16 307.68 16 309.751V314.251C16 316.322 17.6789 318.001 19.75 318.001H24.25C26.3211 318.001 28 316.322 28 314.251V309.751C28 307.68 26.3211 306.001 24.25 306.001ZM26.875 314.251C26.875 315.698 25.6975 316.876 24.25 316.876H19.75C18.3025 316.876 17.125 315.698 17.125 314.251V309.751C17.125 308.303 18.3025 307.126 19.75 307.126H24.25C25.6975 307.126 26.875 308.303 26.875 309.751V314.251Z" fill="url(#paint0_linear_1_24)"/>
<path d="M22 309.001C23.6569 309.001 25 310.344 25 312.001C25 313.658 23.6569 315.001 22 315.001C20.3431 315.001 19 313.658 19 312.001C19 310.344 20.3431 309.001 22 309.001ZM22 310.126C20.9665 310.126 20.125 310.966 20.125 312.001C20.1262 313.036 20.965 313.874 22 313.876C23.0335 313.876 23.875 313.034 23.875 312.001C23.875 310.966 23.0335 310.126 22 310.126ZM25.225 308.376C25.4458 308.376 25.6248 308.555 25.6248 308.776C25.6248 308.996 25.4458 309.175 25.225 309.175C25.0042 309.175 24.8252 308.996 24.8252 308.776C24.8252 308.555 25.0042 308.376 25.225 308.376Z" fill="url(#paint1_linear_1_24)"/>
<path fill-rule="evenodd" clip-rule="evenodd" d="M22.5392 342.346C22.3555 342.398 22.3602 342.633 22.5493 342.846C22.6603 342.971 22.6506 342.981 22.478 342.916C21.9583 342.721 21.7257 343.068 22.2024 343.327C22.3928 343.43 22.4036 343.457 22.2611 343.474C22.0584 343.497 21.9043 343.593 21.8446 343.733C21.8021 343.832 21.8306 343.838 22.1083 343.789C22.3786 343.742 23.275 343.721 23.4504 343.757C23.6278 343.794 23.5993 343.355 23.3973 342.938C23.2325 342.597 22.7722 342.28 22.5392 342.346ZM22.3022 344.068C22.0123 344.107 21.9242 344.127 21.602 344.23C20.594 344.551 19.7771 345.398 19.3678 346.546C19.0967 347.307 18.9825 348 18.9371 349.162L18.9186 349.635L19.0352 349.76C19.5666 350.333 19.7086 351.552 19.331 352.299C18.9454 353.062 18.1525 353.508 17.1809 353.509C16.3303 353.509 16.2279 353.585 16.4342 354.061C16.7466 354.781 17.6974 355.557 18.7817 355.976C19.1798 356.13 19.5031 356.227 19.9133 356.316C21.3168 356.618 23.1645 356.537 24.0938 356.132C24.1391 356.113 24.2364 356.071 24.3101 356.039C24.3837 356.007 24.4785 355.96 24.5207 355.934C24.563 355.909 24.6028 355.888 24.6092 355.888C24.673 355.888 25.1721 355.501 25.3606 355.306C25.8629 354.785 26.2841 353.969 26.4182 353.255C26.4245 353.221 26.4445 353.13 26.4625 353.052C26.4805 352.973 26.5034 352.85 26.5132 352.777C26.5231 352.704 26.5478 352.531 26.5681 352.391C26.6147 352.071 26.623 350.403 26.5803 349.951C26.515 349.261 26.4184 348.434 26.3772 348.213C26.3606 348.124 26.3332 347.973 26.3163 347.878C26.2995 347.783 26.2727 347.655 26.2567 347.593C26.2408 347.532 26.2033 347.385 26.1735 347.268C25.5919 344.98 24.1838 343.816 22.3022 344.068ZM22.2673 347.329C22.3865 347.401 22.4256 347.553 22.3545 347.668C22.2481 347.841 22.0038 347.832 21.9097 347.652C21.7972 347.437 22.0572 347.203 22.2673 347.329ZM25.0257 347.378C25.1434 347.505 25.1073 347.685 24.9477 347.766C24.6653 347.911 24.4427 347.475 24.7219 347.325C24.829 347.267 24.9407 347.287 25.0257 347.378ZM23.9357 348.297C24.3619 348.47 24.4024 348.525 24.2019 348.659C23.4957 349.133 23.5552 349.12 23.1877 348.887C22.574 348.497 22.5732 348.511 23.2289 348.25C23.5438 348.124 23.5025 348.122 23.9357 348.297ZM18.5309 349.909C18.4732 349.944 18.2369 350.207 18.1461 350.338C17.7436 350.917 17.1228 351.997 17.1228 352.117C17.1228 352.122 17.1006 352.174 17.0736 352.233C16.9471 352.509 16.8345 352.876 16.8345 353.013C16.8345 353.144 16.9032 353.169 17.2669 353.17C18.1647 353.172 18.9224 352.631 19.1428 351.832C19.3259 351.168 19.065 350.083 18.6788 349.902C18.5946 349.863 18.6082 349.862 18.5309 349.909ZM26.9378 350.029C26.9319 350.039 26.9371 350.242 26.9492 350.482C26.9879 351.244 26.9505 352.224 26.8624 352.757C26.8411 352.886 26.8317 352.936 26.7799 353.2C26.7477 353.364 26.7505 353.365 26.9341 353.275C27.6609 352.921 27.854 352.128 27.4883 350.998C27.3406 350.542 26.9962 349.936 26.9378 350.029Z" fill="#FACB05"/>
<path fill-rule="evenodd" clip-rule="evenodd" d="M22.4584 342.016C22.2865 342.053 22.0653 342.309 22.0653 342.473C22.0653 342.501 22.0365 342.525 21.9675 342.554C21.6698 342.68 21.5472 342.941 21.6505 343.23L21.6931 343.349L21.644 343.413C21.5632 343.518 21.4938 343.673 21.4792 343.782C21.4614 343.915 21.4567 343.92 21.3342 343.965C20.3764 344.313 19.5422 345.185 19.1129 346.288C18.9851 346.616 18.9686 346.667 18.8649 347.049C18.7269 347.558 18.5881 348.757 18.5852 349.465C18.585 349.509 18.5704 349.523 18.5039 349.544C18.0571 349.69 17.0583 351.255 16.6152 352.503C16.5469 352.695 16.5223 352.815 16.5073 353.028L16.4947 353.207L16.3843 353.246C15.2956 353.623 16.6733 355.502 18.5952 356.262C18.6745 356.293 18.7579 356.326 18.7806 356.336C18.9042 356.388 19.3644 356.527 19.5908 356.58C19.9758 356.671 20.0075 356.677 20.1113 356.69C20.2359 356.706 20.2631 356.73 20.3114 356.863C20.3336 356.925 20.3905 357.08 20.4377 357.209C20.485 357.338 20.5374 357.484 20.5541 357.534C20.5709 357.585 20.5923 357.644 20.6016 357.666C20.7094 357.924 20.7131 357.92 20.3455 357.92C20.0609 357.92 20.0265 357.934 20.0265 358.05C20.0265 358.206 20.1097 358.249 20.4494 358.267C20.9362 358.292 21.1615 358.414 21.4342 358.799C21.5846 359.011 21.6733 359.047 21.796 358.945C21.9144 358.847 21.8399 358.651 21.5899 358.405C21.4581 358.275 21.4447 358.281 21.8745 358.278C22.1431 358.277 22.2541 358.269 22.2919 358.248C22.4382 358.169 22.4732 358.074 22.3933 357.974L22.3507 357.92H21.8489C21.1506 357.92 21.1661 357.929 20.9838 357.443C20.9419 357.331 20.8766 357.157 20.8387 357.056C20.7341 356.778 20.731 356.79 20.9018 356.802C21.2293 356.825 22.5499 356.812 22.7758 356.784C23.1683 356.734 23.1108 356.685 23.3003 357.229C23.3816 357.462 23.3843 357.46 23.0068 357.473L22.714 357.483V357.562C22.714 357.712 22.7986 357.753 23.1797 357.787C23.3554 357.803 23.5264 357.827 23.5597 357.84C23.8138 357.942 23.9328 358.037 24.0835 358.26C24.2714 358.537 24.3193 358.569 24.4508 358.502C24.6236 358.413 24.5817 358.258 24.3043 357.96C24.1531 357.797 24.1664 357.774 24.3924 357.803C24.8616 357.863 25.1544 357.774 25.1544 357.572C25.1544 357.467 25.1778 357.471 24.5388 357.473C23.818 357.475 23.8648 357.494 23.7433 357.151C23.7169 357.077 23.6669 356.943 23.6321 356.854C23.5563 356.66 23.5553 356.647 23.615 356.634C23.7059 356.614 24.0323 356.515 24.0934 356.488C24.1276 356.474 24.2066 356.441 24.2689 356.417C25.1584 356.062 25.8825 355.395 26.3147 354.532C26.4304 354.3 26.6166 353.838 26.6166 353.781C26.6166 353.741 26.6911 353.692 26.7514 353.692C27.1854 353.692 27.7981 353.101 27.9471 352.538C28.1874 351.631 27.5652 349.787 26.9646 349.626L26.8904 349.606L26.8659 349.387C26.8524 349.267 26.8316 349.082 26.8198 348.976C26.7885 348.695 26.7033 348.089 26.6768 347.959C26.6643 347.898 26.6449 347.802 26.6338 347.746C26.2364 345.75 25.3091 344.388 24.032 343.924C23.8765 343.867 23.8803 343.875 23.8927 343.651C23.9424 342.762 23.1584 341.868 22.4584 342.016ZM22.8685 342.404C23.2149 342.562 23.5025 343.009 23.5526 343.466C23.5809 343.724 23.5612 343.78 23.4504 343.757C23.275 343.721 22.3786 343.742 22.1083 343.789C21.8306 343.838 21.8021 343.832 21.8446 343.733C21.9043 343.593 22.0584 343.497 22.2611 343.474C22.4036 343.457 22.3928 343.43 22.2024 343.327C21.7257 343.068 21.9583 342.721 22.478 342.916C22.6506 342.981 22.6603 342.971 22.5493 342.846C22.2385 342.496 22.4445 342.211 22.8685 342.404ZM23.2392 344.067C24.6738 344.268 25.6936 345.38 26.1735 347.268C26.2033 347.385 26.2408 347.532 26.2567 347.593C26.2727 347.655 26.2995 347.783 26.3163 347.878C26.3332 347.973 26.3606 348.124 26.3772 348.213C26.4184 348.434 26.5151 349.261 26.5803 349.951C26.623 350.403 26.6147 352.071 26.5681 352.391C26.5478 352.531 26.5231 352.705 26.5133 352.777C26.5034 352.85 26.4805 352.973 26.4625 353.052C26.4445 353.13 26.4245 353.221 26.4182 353.255C26.2841 353.969 25.8629 354.785 25.3606 355.306C25.1721 355.501 24.673 355.888 24.6092 355.888C24.6028 355.888 24.563 355.909 24.5207 355.934C24.4785 355.96 24.3837 356.007 24.3101 356.039C24.2364 356.071 24.1391 356.113 24.0938 356.132C23.5586 356.365 22.7494 356.496 21.8379 356.497C20.0519 356.499 18.6057 356.09 17.4935 355.27C16.6795 354.67 16.1077 353.744 16.4466 353.575C16.5293 353.534 16.803 353.509 17.1809 353.509C18.7675 353.508 19.7878 352.317 19.5044 350.799C19.4257 350.377 19.253 349.995 19.0352 349.76L18.9186 349.635L18.9371 349.162C18.9763 348.16 19.0684 347.504 19.2574 346.882C19.7059 345.405 20.5228 344.54 21.8285 344.159C22.2129 344.047 22.8166 344.007 23.2392 344.067ZM22.0335 347.317C21.9099 347.37 21.8487 347.536 21.9097 347.652C21.9763 347.779 22.1274 347.829 22.2526 347.765C22.5411 347.618 22.3314 347.189 22.0335 347.317ZM24.7219 347.325C24.4427 347.475 24.6653 347.911 24.9477 347.766C25.0427 347.718 25.0926 347.64 25.0926 347.539C25.0926 347.353 24.8884 347.235 24.7219 347.325ZM23.2289 348.25C22.5732 348.511 22.574 348.497 23.1877 348.887C23.5552 349.12 23.4957 349.133 24.2019 348.659C24.4024 348.525 24.3619 348.47 23.9357 348.297C23.5025 348.122 23.5438 348.124 23.2289 348.25ZM18.6788 349.902C19.065 350.083 19.3259 351.168 19.1428 351.832C18.9224 352.631 18.1647 353.172 17.2669 353.17C16.9032 353.169 16.8345 353.144 16.8345 353.013C16.8345 352.876 16.9471 352.509 17.0736 352.233C17.1006 352.174 17.1228 352.122 17.1228 352.117C17.1228 351.997 17.7436 350.917 18.1461 350.338C18.2369 350.207 18.4732 349.944 18.5309 349.909C18.6082 349.862 18.5946 349.863 18.6788 349.902ZM27.0403 350.1C27.2173 350.339 27.3811 350.668 27.4883 350.998C27.854 352.128 27.6609 352.921 26.9341 353.275C26.7505 353.365 26.7477 353.364 26.7799 353.2C26.8317 352.936 26.8411 352.886 26.8624 352.757C26.9505 352.224 26.9879 351.244 26.9492 350.482C26.9227 349.959 26.9259 349.945 27.0403 350.1Z" fill="#3E3C30"/>
<path d="M21.9619 22.699L22.2929 20.544H20.2249V19.145C20.2249 18.555 20.5139 17.981 21.4399 17.981H22.3799V16.146C22.3799 16.146 21.5259 16 20.7109 16C19.0079 16 17.8949 17.032 17.8949 18.901V20.544H16.0009V22.699H17.8939V27.909C18.6658 28.0302 19.4519 28.0302 20.2239 27.909V22.699H21.9609" fill="#3A5795"/>
<defs>
<linearGradient id="paint0_linear_1_24" x1="17.098" y1="316.903" x2="26.902" y2="307.099" gradientUnits="userSpaceOnUse">
<stop stop-color="#FFC107"/>
<stop offset="0.507" stop-color="#F44336"/>
<stop offset="0.99" stop-color="#9C27B0"/>
</linearGradient>
<linearGradient id="paint1_linear_1_24" x1="19.9705" y1="314.03" x2="24.6542" y2="309.346" gradientUnits="userSpaceOnUse">
<stop stop-color="#FFC107"/>
<stop offset="0.507" stop-color="#F44336"/>
<stop offset="0.99" stop-color="#9C27B0"/>
</linearGradient>
</defs>
</svg>
